<?xml version="1.0" encoding="utf-8"?>
<!-- Generator: Adobe Illustrator 16.0.3, SVG Export Plug-In . SVG Version: 6.00 Build 0)  -->
<!DOCTYPE svg PUBLIC "-//W3C//DTD SVG 1.1//EN" "http://www.w3.org/Graphics/SVG/1.1/DTD/svg11.dtd">
<svg version="1.1" xmlns="http://www.w3.org/2000/svg" xmlns:xlink="http://www.w3.org/1999/xlink" x="0px" y="0px" width="100px"
	 height="100px" viewBox="0 0 100 100" enable-background="new 0 0 100 100" xml:space="preserve">
<g id="Layer_1" display="none">
	<g display="inline">
		<line fill="none" stroke="#A9CCDB" stroke-width="0.25" stroke-miterlimit="10" x1="0.001" y1="-0.001" x2="100" y2="-0.001"/>
		<line fill="none" stroke="#A9CCDB" stroke-width="0.25" stroke-miterlimit="10" x1="0.001" y1="9.999" x2="100" y2="9.999"/>
		<line fill="none" stroke="#A9CCDB" stroke-width="0.25" stroke-miterlimit="10" x1="0.001" y1="19.999" x2="100" y2="19.999"/>
		<line fill="none" stroke="#A9CCDB" stroke-width="0.25" stroke-miterlimit="10" x1="0.001" y1="29.999" x2="100" y2="29.999"/>
		<line fill="none" stroke="#A9CCDB" stroke-width="0.25" stroke-miterlimit="10" x1="0.001" y1="39.999" x2="100" y2="39.999"/>
		<line fill="none" stroke="#A9CCDB" stroke-width="0.25" stroke-miterlimit="10" x1="0.001" y1="49.999" x2="100" y2="49.999"/>
		<line fill="none" stroke="#A9CCDB" stroke-width="0.25" stroke-miterlimit="10" x1="0.001" y1="59.998" x2="100" y2="59.998"/>
		<line fill="none" stroke="#A9CCDB" stroke-width="0.25" stroke-miterlimit="10" x1="0.001" y1="69.998" x2="100" y2="69.998"/>
		<line fill="none" stroke="#FF0000" stroke-width="0.25" stroke-miterlimit="10" x1="0.001" y1="80" x2="100" y2="80"/>
		<line fill="none" stroke="#A9CCDB" stroke-width="0.25" stroke-miterlimit="10" x1="0.001" y1="90" x2="100" y2="90"/>
		<line fill="none" stroke="#A9CCDB" stroke-width="0.25" stroke-miterlimit="10" x1="0" y1="-0.001" x2="0" y2="100"/>
		<line fill="none" stroke="#A9CCDB" stroke-width="0.25" stroke-miterlimit="10" x1="10" y1="-0.001" x2="10" y2="100"/>
		<line fill="none" stroke="#A9CCDB" stroke-width="0.25" stroke-miterlimit="10" x1="20.001" y1="-0.001" x2="20.001" y2="100"/>
		<line fill="none" stroke="#A9CCDB" stroke-width="0.25" stroke-miterlimit="10" x1="30" y1="-0.001" x2="30" y2="100"/>
		<line fill="none" stroke="#A9CCDB" stroke-width="0.25" stroke-miterlimit="10" x1="40" y1="-0.001" x2="40" y2="100"/>
		<line fill="none" stroke="#A9CCDB" stroke-width="0.25" stroke-miterlimit="10" x1="50" y1="-0.001" x2="50" y2="100"/>
		<line fill="none" stroke="#A9CCDB" stroke-width="0.25" stroke-miterlimit="10" x1="60" y1="-0.001" x2="60" y2="100"/>
		<line fill="none" stroke="#A9CCDB" stroke-width="0.25" stroke-miterlimit="10" x1="70" y1="-0.001" x2="70" y2="100"/>
		<line fill="none" stroke="#A9CCDB" stroke-width="0.25" stroke-miterlimit="10" x1="80" y1="-0.001" x2="80" y2="100"/>
		<line fill="none" stroke="#A9CCDB" stroke-width="0.25" stroke-miterlimit="10" x1="90" y1="-0.001" x2="90" y2="100"/>
		<text transform="matrix(1 0 0 1 5.2231 106.499)" font-family="'MyriadPro-Regular'" font-size="6">Hide these Guidelines before saving</text>
		<text transform="matrix(1 0 0 1 -23.2769 81.166)" font-family="'MyriadPro-Regular'" font-size="6">Baseline</text>
	</g>
</g>
<g id="Layer_2" display="none">
	<polygon display="inline" points="65.176,39.998 33.074,7.898 43.699,39.998 33.074,72.1 	"/>
</g>
<g id="Layer_4" display="none">
	<path display="inline" d="M86.325,9.242c-3.906-2.972-9.474-2.209-12.443,1.691L42.074,52.748L24.253,39.192
		c-3.904-2.972-9.473-2.211-12.441,1.692c-2.969,3.903-2.21,9.473,1.691,12.44L38.39,72.258c1.607,1.221,3.497,1.812,5.369,1.812
		c2.679,0,5.326-1.206,7.073-3.504l37.185-48.881C90.984,17.782,90.227,12.21,86.325,9.242z"/>
</g>
<g id="Layer_5" display="none">
	<path display="inline" d="M49.998,4.26c-19.737,0-35.737,16.001-35.737,35.739c0,19.736,16,35.739,35.737,35.739
		c19.74,0,35.741-16.003,35.741-35.739C85.739,20.261,69.738,4.26,49.998,4.26z M55.204,60.592c0,1.143-0.114,2.085-0.339,2.832
		c-0.23,0.748-0.662,1.412-1.293,1.995c-0.406,0.406-0.924,0.741-1.558,1.006c-0.634,0.267-1.308,0.398-2.017,0.398
		c-1.468,0-2.659-0.466-3.57-1.404c-0.735-0.734-1.188-1.521-1.367-2.358c-0.178-0.834-0.265-1.656-0.265-2.469V36.084
		c0-1.139,0.114-2.076,0.342-2.812c0.228-0.735,0.655-1.407,1.29-2.014c0.911-0.937,2.103-1.405,3.57-1.405
		c1.443,0,2.64,0.469,3.574,1.405c0.834,0.81,1.318,1.698,1.443,2.661c0.13,0.962,0.188,1.684,0.188,2.165V60.592z M54.502,24.08
		c-1.253,1.24-2.752,1.86-4.504,1.86c-1.769,0-3.278-0.62-4.521-1.86c-1.24-1.243-1.862-2.75-1.862-4.523
		c0-1.748,0.622-3.25,1.862-4.505c1.244-1.252,2.752-1.879,4.521-1.879c1.752,0,3.251,0.627,4.504,1.879
		c1.256,1.255,1.88,2.757,1.88,4.505C56.382,21.33,55.758,22.837,54.502,24.08z"/>
</g>
<g id="Layer_3">
	<polygon points="50.083,21.346 9.998,58.652 90.168,58.652 	"/>
</g>
</svg>
