<?xml version="1.0" encoding="utf-8"?>
<!-- Generator: Adobe Illustrator 16.0.3, SVG Export Plug-In . SVG Version: 6.00 Build 0)  -->
<!DOCTYPE svg PUBLIC "-//W3C//DTD SVG 1.1//EN" "http://www.w3.org/Graphics/SVG/1.1/DTD/svg11.dtd">
<svg version="1.1" id="Layer_1" xmlns="http://www.w3.org/2000/svg" xmlns:xlink="http://www.w3.org/1999/xlink" x="0px" y="0px"
	 width="641.276px" height="887.89px" viewBox="0 0 641.276 887.89" enable-background="new 0 0 641.276 887.89"
	 xml:space="preserve">
<g>
	<path fill="#053C59" d="M342.111,269.227l-0.021,20.628h-4.356v-18.836c0.021-0.625-0.324-1.315-0.819-1.792"/>
	<path fill="#053C59" d="M335.581,283.733c0.016,1.814-0.492,3.6-1.973,4.89c-2.614,1.984-7.456,2.056-9.858,0.473
		c-3.495-2.551-3.841-7.37-2.992-11.496c0.484-2.11,2.142-4.094,4.221-4.881c2.804-0.945,6.804-1.008,8.882,1.354
		c1.795,1.858,1.747,4.7,1.743,7.243l-10.526,0.017c0.013,2.307-0.351,5.086,1.602,6.471c0.945,0.599,2.426,0.536,3.401,0.063
		c1.387-0.913,1.287-2.634,1.292-4.125 M331.31,279.427c-0.067-1.555,0.252-3.401-0.85-4.598c-0.789-0.756-2.084-1.003-3.214-0.629
		c-2.235,0.788-2.177,3.369-2.169,5.228H331.31z"/>
	<path fill="#053C59" d="M315.696,289.86l-4.221-0.004l-0.007-14.861c-0.008-0.798-0.343-1.712-0.85-2.366l4.397-0.003
		c0.378,0.882,0.401,1.953,0.516,2.898c0.662-1.229,1.764-2.741,3.244-3.055c0.566-0.094,1.386-0.252,1.827,0.125l-0.221,3.559
		c-1.197-0.157-2.74,0-3.559,1.039c-0.826,1.046-1.072,2.23-1.123,3.488"/>
	<path fill="#053C59" d="M308.401,267.392l-0.005,22.485l-4.708-0.021v-19.939c0-0.881-0.409-1.875-1.04-2.503"/>
	<path fill="#053C59" d="M295.783,278.797h-3.889l-0.009,11.063l-4.131,0.008l-0.017-17.063c0.008-1.766,1.622-2.834,3.008-3.362
		c2.046-0.818,4.818-0.661,6.865,0.032v3.402c-1.354-1.166-3.338-1.858-5.039-1.04c-0.483,0.266-0.662,0.725-0.662,1.228
		l0.009,3.716c-0.007,0,2.975,0.073,3.888-0.157"/>
	<path fill="#053C59" d="M281.643,289.474c-2.521,0.977-6.078,1.071-8.408-0.377c-3.685-2.551-3.813-7.558-3.056-11.715
		c0.314-1.606,1.386-3.244,2.96-4.189c2.708-1.512,7.101-1.688,9.574,0.125c3.461,2.855,3.654,8.094,2.519,12.188
		C284.698,287.143,283.312,288.845,281.643,289.474 M281.195,280.876c-0.035-2.268,0.078-5.11-1.662-6.299
		c-0.945-0.536-2.551-0.662-3.496-0.032c-0.788,0.472-1.166,1.322-1.354,2.173c-0.22,2.33-0.29,4.881-0.095,7.274
		c0.125,1.523,0.252,3.118,1.796,3.905c1.134,0.441,2.834,0.492,3.621-0.377C281.36,285.695,281.229,283.113,281.195,280.876"/>
	<path fill="#053C59" d="M264.758,289.856l-5.197,0.013l-5.507-9.717l4.598-5.921c0.283-0.503,0.031-1.162-0.157-1.603h5.153
		c0,0-3.578,4.469-5.311,6.452"/>
	<path fill="#053C59" d="M253.659,289.856h-4.234V271.68c-0.012-0.945-0.319-1.662-0.965-2.449l5.208-0.008"/>
	<path fill="#053C59" d="M235.788,272.625c0.421,0.434,0.628,0.895,0.63,1.417c2.141-1.606,5.385-2.361,7.937-1.165
		c1.787,0.813,2.509,2.653,2.535,4.495c0.02,1.452-0.021,12.483-0.021,12.483h-4.278v-13.01c-0.095-0.693-0.504-1.292-1.071-1.701
		c-1.795-0.882-3.57,0.188-4.925,1.385c0.02,4.075,0.004,13.331-0.004,13.326l-4.295,0.004l0.004-14.967
		c0-0.788-0.268-1.638-0.87-2.271"/>
	<path fill="#053C59" d="M226.087,289.876c-0.236-0.474-0.397-0.844-0.472-1.442c-2.111,1.543-4.851,2.362-7.527,1.639
		c-1.544-0.473-2.678-1.795-3.149-3.276c-0.473-1.575-0.316-3.527,0.692-4.818c2.457-2.803,6.771-1.543,9.417-4.031
		c0.568-0.725,0.568-1.858,0.189-2.677c-0.724-1.165-2.235-1.449-3.59-1.229c-0.662,0.221-1.417,0.505-1.763,1.229
		c-0.292,0.812-0.205,1.354-0.213,2.173h-3.913c-0.079-1.441,0.221-2.708,1.323-3.654c2.676-2.046,6.602-1.96,9.751-0.984
		c1.26,0.441,2.917,1.83,2.917,3.126c-0.016,3.85-0.008,7.754,0,11.526c0.094,0.819,0.432,1.606,0.59,2.418 M225.521,286.293
		c-0.008-2.07,0-4.259-0.008-6.267c-1.417,0.851-3.173,1.228-4.716,1.826c-1.354,0.599-1.606,2.079-1.575,3.308
		c0.095,1.007,0.377,2.078,1.322,2.55c1.229,0.662,2.708,0.159,3.748-0.503L225.521,286.293z"/>
	<path fill="#053C59" d="M210.183,289.033c-1.511,0.724-3.243,0.842-5.071,0.835h-8.692l-0.012-18.094
		c0.001-0.902-0.205-1.933-0.798-2.547c0,0,7.519-0.019,11.519-0.004c1.889,0.158,3.873,1.103,4.565,3.023
		c0.473,1.385,0.347,3.086-0.535,4.284c-1.135,1.259-2.646,1.764-4.157,2.11c2.394,0.252,4.944,1.354,5.857,3.811
		C213.647,284.907,212.702,287.868,210.183,289.033 M208.01,285.159c0.346-1.386,0.032-2.929-0.881-4.031
		c-1.571-1.629-3.862-1.13-5.961-1.217l-0.012,7.623c1.638,0.377,3.799,0.46,5.248-0.359
		C207.129,286.734,207.79,285.979,208.01,285.159 M207.191,275.743c0.346-1.071,0.189-2.362-0.504-3.244
		c-1.496-1.614-3.346-1.083-5.523-1.189l0.013,6.606c1.682-0.063,3.431,0.251,4.785-0.566
		C206.529,276.971,207.002,276.373,207.191,275.743"/>
	<path fill="#053C59" d="M372.03,289.856v-13.011c-0.094-0.693-0.503-1.292-1.07-1.701c-1.795-0.881-3.569,0.189-4.925,1.386
		c0.02,4.075,0.005,13.33-0.004,13.326l-4.295,0.004l0.003-14.968c0-0.787-0.268-1.637-0.87-2.271l4.358,0.005
		c0.422,0.433,0.579,0.87,0.631,1.417c2.141-1.606,5.385-2.362,7.937-1.166c1.787,0.815,2.509,2.654,2.534,4.497
		c0.021,1.452,0.005,12.483,0.005,12.483H372.03"/>
	<path fill="#053C59" d="M355.528,289.876c-0.236-0.473-0.398-0.843-0.473-1.441c-2.11,1.543-4.851,2.362-7.527,1.637
		c-1.543-0.473-2.677-1.795-3.149-3.275c-0.473-1.575-0.314-3.527,0.693-4.819c2.456-2.803,6.771-1.543,9.416-4.03
		c0.567-0.725,0.567-1.858,0.188-2.678c-0.724-1.165-2.236-1.448-3.59-1.229c-0.662,0.221-1.417,0.504-1.763,1.229
		c-0.293,0.811-0.204,1.355-0.214,2.173h-3.912c-0.08-1.44,0.221-2.708,1.323-3.653c2.677-2.048,6.602-1.96,9.751-0.984
		c1.259,0.44,2.917,1.83,2.917,3.125c-0.016,3.85-0.009,7.754,0,11.526c0.02,0.869,0.31,1.656,0.59,2.419 M354.953,280.025
		c-1.417,0.851-3.173,1.229-4.717,1.827c-1.354,0.599-1.605,2.078-1.574,3.307c0.095,1.008,0.377,2.079,1.322,2.551
		c1.229,0.662,2.709,0.158,3.749-0.503l1.203-0.914L354.953,280.025z"/>
	<path fill="#053C59" d="M475.609,279.222c0,9.348-13.81,16.925-30.843,16.925c-17.034,0-30.844-7.577-30.844-16.925
		c0-9.347,13.81-16.924,30.844-16.924C461.8,262.298,475.609,269.875,475.609,279.222 M444.767,263.411
		c-15.189,0-27.504,7.079-27.504,15.811c0,8.733,12.314,15.812,27.504,15.812c15.188,0,27.502-7.079,27.502-15.812
		C472.269,270.49,459.955,263.411,444.767,263.411"/>
	<path fill="#053C59" d="M469.708,279.223c0,7.441-11.167,13.62-24.941,13.62c-13.775,0-24.784-6.179-24.784-13.62
		c0-7.441,10.891-13.67,24.665-13.67C458.423,265.553,469.708,271.782,469.708,279.223 M444.731,264.575
		c-14.613,0-26.028,6.833-26.028,14.727s11.532,14.53,26.146,14.53s26.067-6.636,26.067-14.53S459.346,264.575,444.731,264.575"/>
	<path fill="#053C59" d="M444.767,291.981c0.079-0.319,0.279-0.606,0.488-0.87c0.944-0.976,2.141-1.354,3.338-1.764
		c2.835-0.882,5.857-1.299,8.569-2.724c1.003-0.545,0.914-0.902,0.918-4.625c-0.008,0.027-0.354,0.578-0.638,0.831
		c-1.039,0.976-2.362,1.397-3.686,1.795c-2.875,0.865-5.873,1.125-8.393,2.795c-0.511,0.335-0.598,0.764-0.598,0.764
		s-0.088-0.429-0.6-0.764c-2.519-1.669-5.516-1.93-8.393-2.795c-1.322-0.398-2.645-0.819-3.685-1.795
		c-0.283-0.252-0.63-0.803-0.637-0.831c0.003,3.723-0.086,4.081,0.916,4.625c2.713,1.425,5.736,1.842,8.57,2.724
		c1.198,0.409,2.394,0.788,3.338,1.764C444.487,291.375,444.687,291.663,444.767,291.981"/>
	<path fill="#053C59" d="M444.767,285.486c0.079-0.319,0.279-0.606,0.488-0.87c0.944-0.976,2.141-1.354,3.338-1.764
		c2.835-0.882,5.857-1.3,8.569-2.724c1.003-0.545,0.914-0.903,0.918-4.626c-0.008,0.028-0.354,0.579-0.638,0.831
		c-1.039,0.976-2.362,1.397-3.686,1.795c-2.875,0.865-5.873,1.125-8.393,2.795c-0.511,0.334-0.598,0.764-0.598,0.764
		s-0.088-0.429-0.6-0.764c-2.519-1.669-5.516-1.93-8.393-2.795c-1.322-0.398-2.645-0.819-3.685-1.795
		c-0.283-0.252-0.63-0.803-0.637-0.831c0.003,3.723-0.086,4.081,0.916,4.626c2.713,1.424,5.736,1.842,8.57,2.724
		c1.198,0.409,2.394,0.788,3.338,1.764C444.487,284.88,444.687,285.167,444.767,285.486"/>
	<path fill="#053C59" d="M444.767,279.147c0.079-0.319,0.279-0.606,0.488-0.87c0.944-0.976,2.141-1.354,3.338-1.764
		c2.835-0.881,5.857-1.299,8.569-2.724c1.003-0.545,0.914-0.904,0.918-4.626c-0.008,0.027-0.354,0.578-0.638,0.831
		c-1.039,0.976-2.362,1.397-3.686,1.794c-2.875,0.865-5.873,1.126-8.393,2.796c-0.511,0.334-0.598,0.764-0.598,0.764
		s-0.088-0.43-0.6-0.764c-2.519-1.669-5.516-1.931-8.393-2.796c-1.322-0.397-2.645-0.818-3.685-1.794
		c-0.283-0.252-0.63-0.803-0.637-0.831c0.003,3.722-0.086,4.081,0.916,4.626c2.713,1.424,5.736,1.842,8.57,2.724
		c1.198,0.41,2.394,0.788,3.338,1.764C444.487,278.542,444.687,278.829,444.767,279.147"/>
	<path fill="#053C59" d="M393.596,269.231l-0.003,20.645h-3.799l-0.3-1.221c-1.701,1.575-4.583,2.016-6.724,1.102
		c-3.308-1.26-4.378-4.881-4.347-8.251c-0.063-3.434,0.661-6.992,3.874-8.788c2.141-1.165,5.153-1.007,7.043,0.504
		c0.003-1.449-0.146-2.827-0.84-3.992 M389.353,275.899c-0.221-0.598-0.689-0.948-1.261-1.197c-0.976-0.409-2.235-0.503-3.149,0.095
		c-0.817,0.599-1.273,1.402-1.524,2.287c-0.522,1.575-0.566,5.665-0.031,7.639c0.235,0.87,0.507,1.707,1.021,2.419
		c0.503,0.504,1.228,0.814,1.921,0.756c1.134-0.158,2.331-0.598,3.023-1.575V275.899z"/>
</g>
</svg>
